<?xml version="1.0" encoding="utf-8"?>
<!-- Generator: Adobe Illustrator 16.0.4, SVG Export Plug-In . SVG Version: 6.00 Build 0)  -->
<!DOCTYPE svg PUBLIC "-//W3C//DTD SVG 1.1//EN" "http://www.w3.org/Graphics/SVG/1.1/DTD/svg11.dtd">
<svg version="1.1" id="Layer_1" xmlns="http://www.w3.org/2000/svg" xmlns:xlink="http://www.w3.org/1999/xlink" x="0px" y="0px"
	 width="236.553px" height="41.159px" viewBox="0 0 236.553 41.159" enable-background="new 0 0 236.553 41.159"
	 xml:space="preserve">
<path fill="#FFFFFF" d="M57.48,36.035c0,2.817-2.306,5.124-5.124,5.124H5.123C2.306,41.159,0,38.853,0,36.035V5.124
	C0,2.306,2.306,0,5.123,0h47.234c2.818,0,5.124,2.306,5.124,5.124V36.035z M26.632,24.456V7.755h-6.326v16.556
	c0,1.205-0.313,2.133-0.94,2.783c-0.627,0.651-1.47,0.977-2.531,0.977s-1.892-0.325-2.494-0.977
	c-0.603-0.65-0.904-1.578-0.904-2.783V7.755H7.111v16.701c0,1.422,0.253,2.699,0.759,3.832c0.506,1.133,1.205,2.104,2.097,2.91
	c0.891,0.808,1.921,1.428,3.091,1.861c1.168,0.434,2.428,0.65,3.777,0.65c1.325,0,2.585-0.217,3.778-0.65s2.235-1.054,3.127-1.861
	c0.891-0.807,1.596-1.777,2.115-2.91C26.373,27.155,26.632,25.878,26.632,24.456z M51.719,33.493l-8.025-13.194l7.519-12.543h-7.194
	l-3.759,7.266L36.5,7.755h-7.194l7.52,12.543L28.8,33.493h7.23l4.229-7.916l4.229,7.916H51.719z"/>
<g>
	<path fill="#FFFFFF" d="M84.712,33.493V16.286l-5.929,12.543h-2.892l-6.073-12.543v17.208h-3.904V7.754h3.904l7.519,16.014
		l7.375-16.014h3.904v25.739H84.712z"/>
	<path fill="#FFFFFF" d="M110.088,33.493l-1.771-5.17H98.159l-1.771,5.17H92.23l9.435-25.739h3.145l9.435,25.739H110.088z
		 M103.329,13.61l-4.013,11.424h7.917L103.329,13.61z"/>
	<path fill="#FFFFFF" d="M134.725,27.724c-0.35,1.13-0.946,2.152-1.789,3.064c-0.989,1.034-2.074,1.779-3.254,2.236
		c-1.182,0.457-2.458,0.686-3.832,0.686c-1.35,0-2.591-0.235-3.723-0.705c-1.133-0.471-2.146-1.15-3.037-2.043
		c-0.627-0.626-1.109-1.289-1.446-1.988c-0.337-0.698-0.584-1.457-0.741-2.277c-0.157-0.818-0.248-1.729-0.271-2.729
		c-0.024-1-0.036-2.115-0.036-3.344s0.012-2.344,0.036-3.344s0.114-1.91,0.271-2.729c0.156-0.819,0.403-1.578,0.741-2.277
		c0.337-0.699,0.819-1.361,1.446-1.988c0.891-0.891,1.897-1.572,3.019-2.042c1.121-0.47,2.368-0.705,3.741-0.705
		s2.597,0.211,3.67,0.633c1.071,0.422,2,0.994,2.783,1.717c0.782,0.723,1.415,1.567,1.897,2.53c0.481,0.964,0.819,2,1.013,3.109
		h-3.941c-0.338-1.422-0.963-2.524-1.879-3.308c-0.916-0.783-2.097-1.175-3.543-1.175c-0.771,0-1.482,0.145-2.133,0.434
		s-1.206,0.675-1.663,1.157c-0.313,0.338-0.573,0.705-0.777,1.103c-0.205,0.398-0.362,0.892-0.47,1.482
		c-0.108,0.591-0.187,1.313-0.235,2.169c-0.048,0.855-0.072,1.934-0.072,3.235s0.024,2.386,0.072,3.253
		c0.048,0.868,0.126,1.597,0.235,2.187c0.108,0.592,0.265,1.085,0.47,1.482c0.204,0.398,0.463,0.766,0.777,1.103
		c0.458,0.482,1.012,0.862,1.663,1.139c0.651,0.277,1.361,0.416,2.133,0.416c0.843,0,1.627-0.157,2.35-0.47s1.338-0.76,1.844-1.338
		c0.482-0.555,0.818-1.156,1.012-1.808c0.193-0.65,0.289-1.397,0.289-2.241v-1.446h-5.494v-3.29h9.398v3.931
		C135.248,25.2,135.073,26.595,134.725,27.724z"/>
	<path fill="#FFFFFF" d="M155.42,33.493l-1.771-5.17H143.49l-1.771,5.17h-4.156l9.435-25.739h3.146l9.435,25.739H155.42z
		 M148.66,13.61l-4.013,11.424h7.917L148.66,13.61z"/>
	<path fill="#FFFFFF" d="M161.602,33.493v-3.362l11.893-18.87h-11.387V7.754h15.979v3.181L166.12,29.986h11.966v3.507H161.602z"/>
	<path fill="#FFFFFF" d="M183.182,33.493V7.754h3.904v25.739H183.182z"/>
	<path fill="#FFFFFF" d="M209.607,33.493l-11.893-18.111v18.111h-3.904V7.754h3.578l11.894,18.075V7.754h3.904v25.739H209.607z"/>
	<path fill="#FFFFFF" d="M219.909,33.493V7.754h16.448v3.506h-12.544v7.519h10.7v3.47h-10.7v7.736h12.544v3.507H219.909z"/>
</g>
<g>
</g>
<g>
</g>
<g>
</g>
<g>
</g>
<g>
</g>
<g>
</g>
<g>
</g>
<g>
</g>
<g>
</g>
<g>
</g>
<g>
</g>
<g>
</g>
<g>
</g>
<g>
</g>
<g>
</g>
</svg>
